<svg width="129" height="63" viewBox="0 0 129 63" fill="none" xmlns="http://www.w3.org/2000/svg">
<path d="M84.7793 27.1194C81.0607 38.6866 87.4234 51.0782 98.9906 54.7968C110.558 58.5153 122.949 52.1527 126.668 40.5855L84.7793 27.1194ZM15.2158 62.0071C32.595 55.9732 57.532 48.6309 76.5689 45.6464C86.7815 44.0454 92.2026 44.2366 93.7334 44.5935C94.4767 44.7669 90.5179 44.1295 87.2445 39.5066C83.2413 33.8528 84.378 28.3677 84.7793 27.1194L126.668 40.5855C128.991 33.3584 129.634 23.2313 123.154 14.0803C117.405 5.96 108.987 2.96998 103.725 1.74291C93.2432 -0.700934 80.4613 0.498811 69.7542 2.17737C46.9518 5.75212 19.1829 14.0532 0.784273 20.4411L15.2158 62.0071Z" fill="#EBB805"/>
<path d="M27.8351 20.5804C27.777 21.3635 27.7335 22.1181 27.7044 22.8442C27.6899 23.5704 27.6826 24.1256 27.6826 24.5101C27.6826 24.8233 27.6899 25.1152 27.7044 25.3857C27.7189 25.6562 27.7335 25.8911 27.748 26.0905H27.2469C26.9564 24.8233 26.6078 23.8266 26.2011 23.1005C25.7944 22.3601 25.3296 21.8405 24.8067 21.5415C24.2983 21.2282 23.7463 21.0716 23.1508 21.0716H22.8893V33.2663C22.8893 33.8501 22.9474 34.2843 23.0636 34.5691C23.1944 34.8539 23.4268 35.0461 23.7608 35.1457C24.1094 35.2312 24.6106 35.2739 25.2642 35.2739V35.701C24.7849 35.6868 24.1385 35.6725 23.3251 35.6583C22.5262 35.6441 21.691 35.6369 20.8195 35.6369C19.9625 35.6369 19.1564 35.6441 18.4011 35.6583C17.6458 35.6725 17.0357 35.6868 16.5709 35.701V35.2739C17.2246 35.2739 17.7257 35.2312 18.0743 35.1457C18.4229 35.0461 18.6553 34.8539 18.7715 34.5691C18.8877 34.2843 18.9458 33.8501 18.9458 33.2663V21.0716H18.7061C18.0961 21.0716 17.5369 21.2282 17.0285 21.5415C16.5201 21.8405 16.0626 22.353 15.6559 23.0791C15.2492 23.8053 14.8933 24.809 14.5883 26.0905H14.0872C14.1162 25.8911 14.1307 25.6562 14.1307 25.3857C14.1453 25.1152 14.1525 24.8233 14.1525 24.5101C14.1525 24.1256 14.138 23.5704 14.1089 22.8442C14.0944 22.1181 14.0581 21.3635 14 20.5804C14.6827 20.5946 15.4307 20.6089 16.2441 20.6231C17.0721 20.6374 17.8927 20.6445 18.7061 20.6445C19.5195 20.6445 20.2603 20.6445 20.9285 20.6445C21.5966 20.6445 22.3374 20.6445 23.1508 20.6445C23.9787 20.6445 24.7994 20.6374 25.6128 20.6231C26.4262 20.6089 27.167 20.5946 27.8351 20.5804Z" fill="black"/>
<path d="M33.4511 19V26.1332C33.8142 25.4782 34.2935 25.0155 34.889 24.745C35.4991 24.4745 36.1963 24.3392 36.9806 24.3392C37.6197 24.3392 38.1281 24.4175 38.5058 24.5741C38.898 24.7307 39.1957 24.9301 39.3991 25.1721C39.6315 25.4426 39.7985 25.7915 39.9002 26.2186C40.0019 26.6457 40.0527 27.2224 40.0527 27.9485V33.7148C40.0527 34.3128 40.1471 34.7186 40.3359 34.9322C40.5393 35.1457 40.8806 35.2525 41.36 35.2525V35.701C41.084 35.6868 40.6555 35.6725 40.0745 35.6583C39.508 35.6298 38.9488 35.6156 38.3968 35.6156C37.8158 35.6156 37.2494 35.6298 36.6974 35.6583C36.1455 35.6725 35.7242 35.6868 35.4337 35.701V35.2525C35.8404 35.2525 36.1237 35.1457 36.2834 34.9322C36.4432 34.7186 36.5231 34.3128 36.5231 33.7148V26.9234C36.5231 26.5959 36.4868 26.3183 36.4142 26.0905C36.3415 25.8484 36.2181 25.6704 36.0438 25.5565C35.884 25.4284 35.6443 25.3643 35.3248 25.3643C34.9907 25.3643 34.6784 25.4497 34.3879 25.6206C34.1119 25.7772 33.8868 26.0121 33.7125 26.3254C33.5382 26.6244 33.4511 26.9732 33.4511 27.3719V33.7148C33.4511 34.3128 33.5309 34.7186 33.6907 34.9322C33.865 35.1457 34.1483 35.2525 34.5404 35.2525V35.701C34.279 35.6868 33.8868 35.6725 33.3639 35.6583C32.841 35.6298 32.3036 35.6156 31.7516 35.6156C31.1706 35.6156 30.5751 35.6298 29.965 35.6583C29.3695 35.6725 28.9192 35.6868 28.6142 35.701V35.2525C29.0935 35.2525 29.4276 35.1457 29.6164 34.9322C29.8198 34.7186 29.9215 34.3128 29.9215 33.7148V21.5628C29.9215 20.9221 29.827 20.4523 29.6382 20.1533C29.4639 19.84 29.1226 19.6834 28.6142 19.6834V19.2349C29.079 19.2776 29.5293 19.299 29.965 19.299C30.6332 19.299 31.2578 19.2776 31.8388 19.2349C32.4198 19.178 32.9572 19.0997 33.4511 19Z" fill="black"/>
<path d="M47.836 24.3392C49.1142 24.3392 50.1164 24.7094 50.8427 25.4497C51.5689 26.1901 51.932 27.4075 51.932 29.1018H44.9382L44.9164 28.696H48.9689C48.998 27.9983 48.9689 27.3576 48.8818 26.7739C48.7946 26.1759 48.6494 25.6989 48.446 25.343C48.2572 24.987 48.003 24.809 47.6835 24.809C47.2477 24.809 46.8773 25.1152 46.5723 25.7274C46.2673 26.3396 46.0784 27.379 46.0058 28.8455L46.093 28.995C46.0639 29.1516 46.0494 29.3153 46.0494 29.4862C46.0494 29.6428 46.0494 29.8137 46.0494 29.9987C46.0494 30.9812 46.1801 31.7642 46.4416 32.348C46.7176 32.9317 47.0589 33.3446 47.4656 33.5867C47.8723 33.8287 48.2935 33.9497 48.7293 33.9497C48.9762 33.9497 49.2522 33.9142 49.5572 33.843C49.8622 33.7718 50.1818 33.6223 50.5159 33.3945C50.8499 33.1667 51.1695 32.8321 51.4745 32.3907L51.8449 32.5188C51.6851 33.0741 51.4091 33.6223 51.017 34.1633C50.6393 34.6901 50.1527 35.1315 49.5572 35.4874C48.9617 35.8291 48.2427 36 47.4002 36C46.4416 36 45.5846 35.8078 44.8293 35.4234C44.074 35.0247 43.4712 34.4054 43.0209 33.5653C42.5852 32.7111 42.3673 31.6005 42.3673 30.2337C42.3673 28.8811 42.607 27.7705 43.0863 26.902C43.5656 26.0335 44.2192 25.3928 45.0472 24.9799C45.8751 24.5528 46.8047 24.3392 47.836 24.3392Z" fill="black"/>
<path d="M71.4103 20.5804C71.3522 21.3635 71.3087 22.1181 71.2796 22.8442C71.2651 23.5704 71.2578 24.1256 71.2578 24.5101C71.2578 24.8233 71.2651 25.1152 71.2796 25.3857C71.2941 25.6562 71.3087 25.8911 71.3232 26.0905H70.8221C70.5316 24.8233 70.183 23.8266 69.7763 23.1005C69.3696 22.3601 68.9048 21.8405 68.3819 21.5415C67.8735 21.2282 67.3215 21.0716 66.726 21.0716H66.4646V33.2663C66.4646 33.8501 66.5227 34.2843 66.6389 34.5691C66.7696 34.8539 67.002 35.0461 67.3361 35.1457C67.6847 35.2312 68.1858 35.2739 68.8394 35.2739V35.701C68.3601 35.6868 67.7137 35.6725 66.9003 35.6583C66.1014 35.6441 65.2662 35.6369 64.3947 35.6369C63.5378 35.6369 62.7316 35.6441 61.9763 35.6583C61.221 35.6725 60.611 35.6868 60.1461 35.701V35.2739C60.7998 35.2739 61.3009 35.2312 61.6495 35.1457C61.9981 35.0461 62.2305 34.8539 62.3467 34.5691C62.4629 34.2843 62.521 33.8501 62.521 33.2663V21.0716H62.2813C61.6713 21.0716 61.1121 21.2282 60.6037 21.5415C60.0953 21.8405 59.6378 22.353 59.2311 23.0791C58.8244 23.8053 58.4685 24.809 58.1635 26.0905H57.6624C57.6914 25.8911 57.7059 25.6562 57.7059 25.3857C57.7205 25.1152 57.7277 24.8233 57.7277 24.5101C57.7277 24.1256 57.7132 23.5704 57.6841 22.8442C57.6696 22.1181 57.6333 21.3635 57.5752 20.5804C58.2579 20.5946 59.0059 20.6089 59.8193 20.6231C60.6473 20.6374 61.4679 20.6445 62.2813 20.6445C63.0947 20.6445 63.8355 20.6445 64.5037 20.6445C65.1718 20.6445 65.9126 20.6445 66.726 20.6445C67.5539 20.6445 68.3746 20.6374 69.188 20.6231C70.0014 20.6089 70.7422 20.5946 71.4103 20.5804Z" fill="black"/>
<path d="M80.1388 24.3392C80.6327 24.3392 81.0249 24.446 81.3154 24.6595C81.6059 24.8589 81.8165 25.1223 81.9472 25.4497C82.0779 25.763 82.1433 26.0762 82.1433 26.3894C82.1433 26.9732 81.969 27.443 81.6204 27.799C81.2863 28.1549 80.8433 28.3329 80.2913 28.3329C79.7103 28.3329 79.2673 28.2048 78.9623 27.9485C78.6573 27.678 78.5048 27.322 78.5048 26.8807C78.5048 26.4393 78.5992 26.0762 78.788 25.7915C78.9913 25.5067 79.2383 25.2647 79.5288 25.0653C79.3109 25.0369 79.1003 25.0653 78.8969 25.1508C78.6645 25.2077 78.4467 25.3145 78.2433 25.4711C78.04 25.6277 77.8657 25.8128 77.7204 26.0264C77.5752 26.24 77.459 26.4749 77.3718 26.7312C77.2992 26.9732 77.2629 27.2224 77.2629 27.4786V33.5013C77.2629 34.1847 77.4154 34.6474 77.7204 34.8894C78.04 35.1315 78.5411 35.2525 79.2237 35.2525V35.701C78.8897 35.6868 78.3958 35.6725 77.7422 35.6583C77.0886 35.6298 76.4131 35.6156 75.7159 35.6156C75.0914 35.6156 74.4595 35.6298 73.8204 35.6583C73.1958 35.6725 72.731 35.6868 72.426 35.701V35.2525C72.9053 35.2525 73.2394 35.1457 73.4282 34.9322C73.6316 34.7186 73.7333 34.3128 73.7333 33.7148V26.9661C73.7333 26.3254 73.6389 25.8555 73.45 25.5565C73.2612 25.2433 72.9199 25.0867 72.426 25.0867V24.6382C72.8908 24.6809 73.3411 24.7023 73.7768 24.7023C74.4305 24.7023 75.0478 24.6809 75.6288 24.6382C76.2243 24.5812 76.769 24.5029 77.2629 24.4033V26.1545C77.4372 25.7843 77.6623 25.464 77.9383 25.1935C78.2288 24.9229 78.5556 24.7165 78.9187 24.5741C79.2964 24.4175 79.7031 24.3392 80.1388 24.3392Z" fill="black"/>
<path d="M88.1984 24.3392C89.4766 24.3392 90.4788 24.7094 91.2051 25.4497C91.9313 26.1901 92.2944 27.4075 92.2944 29.1018H85.3006L85.2788 28.696H89.3313C89.3604 27.9983 89.3313 27.3576 89.2442 26.7739C89.157 26.1759 89.0118 25.6989 88.8084 25.343C88.6196 24.987 88.3654 24.809 88.0459 24.809C87.6101 24.809 87.2397 25.1152 86.9347 25.7274C86.6297 26.3396 86.4408 27.379 86.3682 28.8455L86.4554 28.995C86.4263 29.1516 86.4118 29.3153 86.4118 29.4862C86.4118 29.6428 86.4118 29.8137 86.4118 29.9987C86.4118 30.9812 86.5425 31.7642 86.804 32.348C87.0799 32.9317 87.4213 33.3446 87.828 33.5867C88.2347 33.8287 88.6559 33.9497 89.0917 33.9497C89.3386 33.9497 89.6146 33.9142 89.9196 33.843C90.2246 33.7718 90.5442 33.6223 90.8783 33.3945C91.2123 33.1667 91.5319 32.8321 91.8369 32.3907L92.2073 32.5188C92.0475 33.0741 91.7715 33.6223 91.3794 34.1633C91.0017 34.6901 90.5151 35.1315 89.9196 35.4874C89.3241 35.8291 88.6051 36 87.7626 36C86.804 36 85.947 35.8078 85.1917 35.4234C84.4364 35.0247 83.8336 34.4054 83.3833 33.5653C82.9476 32.7111 82.7297 31.6005 82.7297 30.2337C82.7297 28.8811 82.9693 27.7705 83.4487 26.902C83.928 26.0335 84.5816 25.3928 85.4096 24.9799C86.2375 24.5528 87.1671 24.3392 88.1984 24.3392Z" fill="black"/>
<path d="M101.643 24.3392C102.282 24.3392 102.791 24.4175 103.169 24.5741C103.561 24.7307 103.858 24.9301 104.062 25.1721C104.294 25.4426 104.461 25.7915 104.563 26.2186C104.679 26.6457 104.737 27.2224 104.737 27.9485V33.7148C104.737 34.3128 104.832 34.7186 105.02 34.9322C105.224 35.1457 105.565 35.2525 106.044 35.2525V35.701C105.754 35.6868 105.318 35.6725 104.737 35.6583C104.171 35.6298 103.619 35.6156 103.081 35.6156C102.486 35.6156 101.912 35.6298 101.36 35.6583C100.808 35.6725 100.394 35.6868 100.118 35.701V35.2525C100.525 35.2525 100.808 35.1457 100.968 34.9322C101.128 34.7186 101.208 34.3128 101.208 33.7148V26.9234C101.208 26.5959 101.171 26.3183 101.099 26.0905C101.026 25.8484 100.903 25.6704 100.728 25.5565C100.554 25.4284 100.307 25.3643 99.9875 25.3643C99.6534 25.3643 99.3411 25.4497 99.0506 25.6206C98.7747 25.7915 98.5495 26.0335 98.3752 26.3467C98.2154 26.6457 98.1356 26.9874 98.1356 27.3719V33.7148C98.1356 34.3128 98.2154 34.7186 98.3752 34.9322C98.535 35.1457 98.8182 35.2525 99.2249 35.2525V35.701C98.949 35.6868 98.5495 35.6725 98.0266 35.6583C97.5037 35.6298 96.9736 35.6156 96.4361 35.6156C95.8406 35.6156 95.2451 35.6298 94.6495 35.6583C94.054 35.6725 93.6037 35.6868 93.2987 35.701V35.2525C93.778 35.2525 94.1121 35.1457 94.3009 34.9322C94.5043 34.7186 94.606 34.3128 94.606 33.7148V26.9661C94.606 26.3254 94.5116 25.8555 94.3227 25.5565C94.1339 25.2433 93.7926 25.0867 93.2987 25.0867V24.6382C93.7635 24.6809 94.2138 24.7023 94.6495 24.7023C95.3032 24.7023 95.9205 24.6809 96.5015 24.6382C97.097 24.5812 97.6417 24.5029 98.1356 24.4033V26.1332C98.4842 25.4782 98.9562 25.0155 99.5518 24.745C100.162 24.4745 100.859 24.3392 101.643 24.3392Z" fill="black"/>
<path d="M111.516 21.157V24.6382H113.869V25.0653H111.516V33.8003C111.516 34.1562 111.582 34.4125 111.712 34.5691C111.843 34.7115 112.039 34.7827 112.301 34.7827C112.518 34.7827 112.744 34.7115 112.976 34.5691C113.223 34.4267 113.448 34.1847 113.651 33.843L114 34.0565C113.724 34.6403 113.339 35.1101 112.845 35.4661C112.366 35.822 111.734 36 110.95 36C110.47 36 110.042 35.9359 109.664 35.8078C109.301 35.6939 108.996 35.5159 108.749 35.2739C108.43 34.9606 108.219 34.5762 108.117 34.1206C108.03 33.6508 107.987 33.0456 107.987 32.3053V25.0653H106.244V24.6382H107.987V21.9686C108.669 21.9686 109.294 21.9045 109.86 21.7764C110.441 21.6482 110.993 21.4418 111.516 21.157Z" fill="black"/>
</svg>
